<?xml version="1.0" encoding="utf-8"?>
<!-- Generator: Adobe Illustrator 25.4.0, SVG Export Plug-In . SVG Version: 6.00 Build 0)  -->
<svg version="1.1" id="Ebene_1" xmlns="http://www.w3.org/2000/svg" xmlns:xlink="http://www.w3.org/1999/xlink" x="0px" y="0px"
	 viewBox="0 0 468 113" style="enable-background:new 0 0 468 113;" xml:space="preserve">
<style type="text/css">
	.st0{fill:#D1B383;}
	.st1{fill:#F9EEE0;}
</style>
<g>
	<path class="st0" d="M120.67,67.09c1.98-0.23,2.76-1.33,2.76-2.99V53.06c0-1.93-0.05-3.08-1.38-3.08h-1.98v-1.33
		c4.92-0.92,8.24-2.25,8.24-2.25l0.14,0.14c0,0-0.41,1.29-0.55,5.75c0.78-1.47,3.4-5.25,6.35-5.25c1.43,0,2.62,0.92,2.62,2.39
		c0,1.43-1.01,2.53-2.48,2.53c-1.24,0-1.43-0.83-2.53-0.83c-1.52,0-3.17,1.52-3.73,2.16V64.1c0,1.38-0.23,2.48-0.23,2.48l4.28,0.41
		l-0.18,1.24l-11.32,0.28V67.09z"/>
	<path class="st0" d="M140.72,53.06c0-1.98-0.05-3.13-1.38-3.13h-1.47v-1.38c5.93-1.06,7.82-1.75,7.82-1.75l0.14,0.14
		c0,0-0.41,1.29-0.41,4.83v9.62c0,3.4,1.2,4.28,2.94,4.28c2.16,0,4.65-1.61,5.75-2.76v-9.84c0-1.98-0.05-3.13-1.38-3.13h-1.33v-1.38
		c5.75-1.06,7.68-1.75,7.68-1.75l0.14,0.14c0,0-0.41,1.29-0.41,4.83v12.15c0,2.62,1.06,2.62,2.58,2.62h1.2l-0.14,1.33
		c-5.52,0.51-8.33,0.92-8.33,0.92l-0.14-0.14c0,0,0.37-1.33,0.37-2.48v-2.21c-0.92,1.38-3.96,4.97-8.14,4.97
		c-3.27,0-5.47-1.75-5.47-6.17V53.06z"/>
	<path class="st0" d="M164.69,67.09c1.98-0.23,2.76-1.33,2.76-2.99V53.01c0-1.93-0.05-3.08-1.38-3.08h-1.98V48.6
		c6.17-1.24,8.42-2.21,8.42-2.21l0.09,0.14c0,0-0.46,1.52-0.46,5.25V64.1c0,1.38-0.23,2.48-0.23,2.48l3.82,0.41l-0.18,1.24
		l-10.86,0.28V67.09z M166.48,39.81c0-1.56,1.29-2.81,2.9-2.81s2.9,1.24,2.9,2.81c0,1.61-1.29,2.81-2.9,2.81
		S166.48,41.42,166.48,39.81z"/>
	<path class="st0" d="M177.93,67.09c1.98-0.23,2.76-1.33,2.76-2.99V53.01c0-1.93-0.05-3.08-1.38-3.08h-1.98V48.6
		c4.92-0.87,8.19-2.21,8.19-2.21l0.14,0.14c0,0-0.41,1.29-0.51,5.38c1.61-2.3,4.65-4.88,8.46-4.88c3.17,0,5.38,1.75,5.38,6.21V64.1
		c0,1.38-0.23,2.44-0.23,2.44l3.77,0.46l-0.18,1.24l-10.44,0.28v-1.43c1.84-0.23,2.39-1.33,2.39-2.99v-9.52
		c0-3.36-1.1-4.19-2.94-4.19s-4.23,0.92-5.98,2.53V64.1c0,1.38-0.23,2.44-0.23,2.44l3.36,0.46l-0.18,1.24l-10.4,0.28V67.09z"/>
	<path class="st0" d="M205.17,62.12h1.47c0.28,3.91,2.99,5.11,5.11,5.11c2.02,0,3.41-1.1,3.41-2.9c0-4.74-10.17-4.28-10.17-11.18
		c0-3.73,2.9-6.12,7.64-6.12c2.71,0,5.98,0.83,5.98,0.83l-0.97,4.97h-1.47c-0.09-3.68-2.85-4.09-3.96-4.09
		c-2.16,0-3.13,1.29-3.13,2.76c0,4.78,10.12,3.82,10.12,11.09c0,4.14-3.27,6.35-7.68,6.35c-2.39,0-7.04-0.64-7.04-3.17
		C204.48,64.75,205.17,62.12,205.17,62.12z"/>
	<path class="st0" d="M242.2,56.56l1.56-0.23c0.05-1.24,0.05-3.68-0.18-4.88c-0.32-1.52-1.1-2.62-2.58-2.62
		c-2.9,0-4.69,4.65-4.69,4.65h-1.75l-0.87-3.73c0,0,3.54-2.71,9.06-2.71c4.55,0,5.71,1.79,5.71,6.58V64.1c0,1.43,0.18,2.16,1.2,2.16
		c1.1,0,2.3-0.87,2.3-0.87l0.64,1.1c0,0-2.21,2.44-5.25,2.44c-1.98,0-3.45-1.06-3.45-3.17v-0.97c0,0-2.39,4.14-6.85,4.14
		c-2.9,0-5.01-1.98-5.01-4.88C232.03,59.55,237.46,57.29,242.2,56.56z M243.76,63.69v-5.57l-1.33,0.23
		c-2.53,0.41-5.52,1.75-5.52,4.74c0,1.66,0.97,2.76,2.44,2.76C240.86,65.85,242.7,64.56,243.76,63.69z"/>
	<path class="st0" d="M254.11,67.09c1.98-0.23,2.76-1.33,2.76-2.99V53.01c0-1.93-0.05-3.08-1.38-3.08h-1.98V48.6
		c4.92-0.87,8.19-2.21,8.19-2.21l0.14,0.14c0,0-0.41,1.29-0.51,5.38c1.61-2.3,4.65-4.88,8.46-4.88c3.17,0,5.38,1.75,5.38,6.21V64.1
		c0,1.38-0.23,2.44-0.23,2.44l3.77,0.46l-0.18,1.24l-10.44,0.28v-1.43c1.84-0.23,2.39-1.33,2.39-2.99v-9.52
		c0-3.36-1.1-4.19-2.94-4.19c-1.84,0-4.23,0.92-5.98,2.53V64.1c0,1.38-0.23,2.44-0.23,2.44l3.36,0.46l-0.18,1.24l-10.4,0.28V67.09z"
		/>
	<path class="st0" d="M292.52,47.03c1.52,0,2.9,0.23,2.9,0.23v-6.44c0-1.93-0.05-3.08-1.38-3.08h-1.84v-1.33
		c6.21-1.29,8.24-2.21,8.24-2.21l0.14,0.14c0,0-0.46,1.7-0.46,5.25v24.34c0,2.62,1.06,2.62,2.58,2.62h1.2l-0.14,1.33
		c-5.52,0.51-8.28,0.87-8.28,0.87l-0.09-0.09c0,0,0.23-1.33,0.23-2.48V65.3c-1.24,1.93-3.4,3.63-6.44,3.63
		c-5.29,0-8.56-4.65-8.56-9.89C280.6,53.15,284.74,47.03,292.52,47.03z M295.42,64.24V51.45c0-2.16-1.61-2.44-2.85-2.44
		c-4.42,0-7.04,3.68-7.04,8.51c0,4,1.84,8.28,5.71,8.28C293.03,65.8,294.54,64.88,295.42,64.24z"/>
	<path class="st0" d="M317.77,63.64V40.82c0-1.93-0.05-3.08-1.38-3.08h-1.84v-1.33c6.17-1.29,8.24-2.21,8.24-2.21l0.14,0.14
		c0,0-0.46,1.7-0.46,5.25v6.9c0,2.21-0.18,3.31-0.18,3.73c1.2-1.56,3.13-3.17,6.3-3.17c5.66,0,8.51,4.97,8.51,9.98
		c0,5.8-3.91,11.92-12.24,11.92c-2.58,0-5.71-0.55-7.41-0.55l-0.14-0.14C317.31,68.24,317.77,66.4,317.77,63.64z M325.32,66.95
		c4.28,0,6.85-3.63,6.85-8.51c0-4.19-1.84-8.33-5.84-8.33c-1.52,0-2.99,0.69-3.86,1.24V66.4C322.46,66.4,323.61,66.95,325.32,66.95z
		"/>
	<path class="st0" d="M350.2,47.03c4.05,0,7.91,2.53,8.1,7.87c0,0-1.61,0.6-2.53,0.74l-10.72,1.56l-0.41,0.55
		c0.32,3.91,2.35,7.64,7.32,7.64c3.54,0,5.75-2.07,5.75-2.07l0.51,1.15c0,0-2.44,4.46-8.05,4.46c-6.62,0-10.03-5.11-10.03-10.54
		C340.13,52.09,344.45,47.03,350.2,47.03z M344.63,55.36l8.74-1.15c0,0-0.28-5.25-4-5.25C346.57,48.97,344.91,51.91,344.63,55.36z"
		/>
	<path class="st0" d="M368.51,71.28l1.01-2.35c-0.23-0.74-0.69-1.93-1.24-3.31l-6.03-14.12c-0.97-2.3-2.62-2.67-2.62-2.67v-1.24
		h2.16c3.45,0,5.57-0.18,5.57-0.18l0.18,0.18c-0.55,1.1-0.55,2.94-0.05,4.23l3.59,8.83c0.28,0.78,0.64,1.89,0.87,2.71l4.88-11.22
		c0.74-1.84-0.83-2.85-2.53-3.31v-1.24h6.53l0.23,0.74c0,0-0.78,0.55-1.56,2.44l-7.54,17.25c-1.43,3.27-4.28,11.27-9.06,11.27
		c-1.47,0-2.25-0.97-2.25-2.12c0-1.01,0.64-2.07,2.58-2.07C365.84,75.1,367.5,73.62,368.51,71.28z"/>
	<path class="st0" d="M393.72,47.03c6.81,0,10.58,4.33,10.58,10.12c0,5.75-3.68,11.78-11.22,11.78c-6.58,0-10.49-4.51-10.49-10.49
		C382.59,53.01,385.76,47.03,393.72,47.03z M393.72,67.18c3.91,0,5.43-4.69,5.43-8.92c-0.05-4.37-1.7-9.48-5.93-9.48
		c-3.82,0-5.47,4.19-5.47,8.51C387.74,61.85,389.49,67.18,393.72,67.18z"/>
	<path class="st0" d="M407.42,67.09c1.98-0.23,2.76-1.33,2.76-2.99V53.01c0-1.93-0.05-3.08-1.38-3.08h-1.98V48.6
		c4.92-0.87,8.19-2.21,8.19-2.21l0.14,0.14c0,0-0.41,1.29-0.51,5.38c1.61-2.3,4.65-4.88,8.46-4.88c3.17,0,5.38,1.75,5.38,6.21V64.1
		c0,1.38-0.23,2.44-0.23,2.44l3.77,0.46l-0.18,1.24l-10.44,0.28v-1.43c1.84-0.23,2.39-1.33,2.39-2.99v-9.52
		c0-3.36-1.1-4.19-2.94-4.19c-1.84,0-4.23,0.92-5.98,2.53V64.1c0,1.38-0.23,2.44-0.23,2.44l3.36,0.46l-0.18,1.24l-10.4,0.28V67.09z"
		/>
	<path class="st0" d="M445.84,47.03c1.52,0,2.9,0.23,2.9,0.23v-6.44c0-1.93-0.05-3.08-1.38-3.08h-1.84v-1.33
		c6.21-1.29,8.24-2.21,8.24-2.21l0.14,0.14c0,0-0.46,1.7-0.46,5.25v24.34c0,2.62,1.06,2.62,2.58,2.62h1.2l-0.14,1.33
		c-5.52,0.51-8.28,0.87-8.28,0.87l-0.09-0.09c0,0,0.23-1.33,0.23-2.48V65.3c-1.24,1.93-3.4,3.63-6.44,3.63
		c-5.29,0-8.56-4.65-8.56-9.89C433.92,53.15,438.06,47.03,445.84,47.03z M448.73,64.24V51.45c0-2.16-1.61-2.44-2.85-2.44
		c-4.42,0-7.04,3.68-7.04,8.51c0,4,1.84,8.28,5.71,8.28C446.34,65.8,447.86,64.88,448.73,64.24z"/>
	<path class="st0" d="M464,62.72c1.7,0,3.08,1.38,3.08,3.13c0,1.7-1.38,3.08-3.08,3.08s-3.13-1.38-3.13-3.08
		C460.88,64.1,462.3,62.72,464,62.72z M460.92,38.15c4.09-0.97,6.44-1.75,6.44-1.75l0.23,0.23c0,0-0.6,1.56-0.97,5.15l-1.89,17.9
		h-1.38L460.92,38.15z"/>
</g>
<g>
	<rect y="24.64" class="st1" width="3.4" height="3.42"/>
	<path class="st1" d="M0,106.45v0.38c0,5.17,5.7,8.3,10.06,5.52l9.28-5.9H0z"/>
	<rect x="6.81" y="24.64" class="st1" width="3.42" height="3.42"/>
	<rect x="13.64" y="24.64" class="st1" width="3.42" height="3.42"/>
	<path class="st1" d="M89.05,51.04L48.87,25.47L10.54,1.08C5.97-1.82,0,1.46,0,6.87v7.52h27.31v3.42H0v3.42h23.89v10.25H0v3.42
		h27.31v3.42H0v3.34h6.72v1l-2.41,2.41H0v3.42h3.31v51.23H0v3.34h22.09l0.74-3.79c1.19-4.29,5.89-6.13,8.75-3.43l1.76,1.74
		l3.59-2.28V90.4c0-0.55,0.35-1.04,0.88-1.22l8.11-2.7c0.79-0.25,1.69,0.38,1.69,1.22v0.76l1.27-0.81l2.29-1.46V51.71h-7.12v-3.53
		c0-0.36,0.18-0.43,0.26-0.63l1.13-1.96c0.41-0.72,1.14-1.21,2.03-1.38l1.31-0.24c0.3-0.05,0.54-0.22,0.68-0.46l1.06-1.84
		c0.03-0.05,0.14-0.28,0.49-0.44l9.19-3.67c0.77-0.31,1.65,0.3,1.65,1.12v13.03h-7.12v32.23l3.56-2.26V55.27h3.56v24.14l27.22-17.32
		C93.1,59.52,93.1,53.61,89.05,51.04z M20.48,95.32c-0.24,0.4-0.43,0.83-0.55,1.3l-0.79,3.15h-5.5V48.54h6.83V95.32z M23.89,42.71
		l-2.41,2.41h-8.83l-2.41-2.41v-1h13.66V42.71z M40.49,85.42l-3.56,1.19v-9.99c0-1.97,1.59-3.56,3.56-3.56V85.42z M47.6,55.27v28.66
		c-0.41-0.11-0.84-0.19-1.28-0.19c-0.51,0-1.03,0.08-1.52,0.25l-0.75,0.25V55.27H47.6z"/>
</g>
</svg>
